<?xml version="1.0" encoding="UTF-8" standalone="no"?>
<svg
   xmlns:dc="http://purl.org/dc/elements/1.1/"
   xmlns:cc="http://creativecommons.org/ns#"
   xmlns:rdf="http://www.w3.org/1999/02/22-rdf-syntax-ns#"
   xmlns:svg="http://www.w3.org/2000/svg"
   xmlns="http://www.w3.org/2000/svg"
   xmlns:sodipodi="http://sodipodi.sourceforge.net/DTD/sodipodi-0.dtd"
   xmlns:inkscape="http://www.inkscape.org/namespaces/inkscape"
   viewBox="0 0 576 512"
   version="1.1"
   id="svg1098"
   sodipodi:docname="star-blue.svg"
   inkscape:version="1.0.2-2 (e86c870879, 2021-01-15)">
  <metadata
     id="metadata1104">
    <rdf:RDF>
      <cc:Work
         rdf:about="">
        <dc:format>image/svg+xml</dc:format>
        <dc:type
           rdf:resource="http://purl.org/dc/dcmitype/StillImage" />
      </cc:Work>
    </rdf:RDF>
  </metadata>
  <defs
     id="defs1102" />
  <sodipodi:namedview
     pagecolor="#ffffff"
     bordercolor="#666666"
     borderopacity="1"
     objecttolerance="10"
     gridtolerance="10"
     guidetolerance="10"
     inkscape:pageopacity="0"
     inkscape:pageshadow="2"
     inkscape:window-width="1920"
     inkscape:window-height="1013"
     id="namedview1100"
     showgrid="false"
     inkscape:zoom="1.5449219"
     inkscape:cx="288"
     inkscape:cy="256"
     inkscape:window-x="-9"
     inkscape:window-y="-9"
     inkscape:window-maximized="1"
     inkscape:current-layer="svg1098" />
  <!-- Font Awesome Free 5.15.3 by @fontawesome - https://fontawesome.com License - https://fontawesome.com/license/free (Icons: CC BY 4.0, Fonts: SIL OFL 1.1, Code: MIT License) -->
  <path
     d="M259.3 17.8L194 150.2 47.9 171.5c-26.2 3.8-36.7 36.1-17.7 54.6l105.7 103-25 145.5c-4.5 26.3 23.2 46 46.4 33.7L288 439.6l130.7 68.7c23.2 12.2 50.9-7.4 46.4-33.7l-25-145.5 105.7-103c19-18.5 8.5-50.8-17.7-54.6L382 150.2 316.7 17.8c-11.7-23.6-45.6-23.9-57.4 0z"
     id="path1096" />
  <path
     style="fill:#0065fc;fill-opacity:1;stroke-width:0.647282"
     d="m 137.50695,511.29633 c -8.86054,-1.30256 -19.13427,-8.76333 -23.11983,-16.78959 -2.11733,-4.26395 -3.74373,-10.29953 -3.73864,-13.87409 0.002,-1.43822 5.68195,-35.64987 12.622,-76.02589 6.94005,-40.37602 12.61827,-74.02287 12.61827,-74.77077 0,-0.95043 -16.20503,-17.14218 -53.824049,-53.77996 -29.912843,-29.13261 -54.786669,-53.86914 -55.990905,-55.68186 -6.668837,-10.03852 -6.794737,-23.84316 -0.310333,-34.02725 3.876976,-6.08898 11.055217,-11.50955 17.887612,-13.50764 1.42402,-0.41644 35.902943,-5.6147 76.619825,-11.5517 l 74.03071,-10.79453 17.71382,-35.92415 C 262.21013,12.772637 261.31121,14.547301 264.44411,11.062767 269.79643,5.1096955 276.01635,1.7665129 283.7026,0.71140503 c 9.8911,-1.35777381 20.46917,2.40521737 27.20093,9.67632897 3.91239,4.225839 1.01246,-1.4666447 53.72985,105.470186 l 17.06886,34.62405 74.02878,10.79662 c 40.71582,5.93814 75.19389,11.13891 76.61791,11.55724 7.25397,2.13104 14.75816,8.04863 18.38203,14.49556 3.17649,5.65104 4.24754,9.81238 4.17956,16.23877 -0.0706,6.677 -1.53505,11.59971 -5.00936,16.83926 -1.19387,1.80045 -26.12121,26.59362 -55.96748,55.66624 -37.27202,36.30588 -53.81603,52.83495 -53.81865,53.77004 -0.002,0.74256 5.67444,34.38504 12.61449,74.76106 6.94005,40.37602 12.61995,74.58767 12.622,76.02589 0.005,3.5152 -1.61479,9.60369 -3.619,13.6031 -3.63095,7.24554 -10.93341,13.36183 -18.93509,15.85933 -5.55768,1.73468 -13.4202,1.80218 -18.28399,0.15697 -1.92335,-0.65058 -33.2704,-16.83494 -69.66011,-35.96525 -36.38971,-19.13031 -66.46464,-34.78238 -66.83319,-34.78238 -0.36854,0 -30.44425,15.65031 -66.83492,34.77846 -36.39066,19.12816 -67.62951,35.26165 -69.41966,35.85221 -4.34772,1.43429 -9.53017,1.85636 -14.25861,1.16124 z"
     id="path1106" />
</svg>
